<?xml version="1.0" encoding="UTF-8"?>
<!DOCTYPE svg PUBLIC "-//W3C//DTD SVG 1.1//EN" "http://www.w3.org/Graphics/SVG/1.1/DTD/svg11.dtd">
<!-- Creator: CorelDRAW X7 -->
<svg xmlns="http://www.w3.org/2000/svg" xml:space="preserve" width="111.169mm" height="46.5868mm" version="1.1" style="shape-rendering:geometricPrecision; text-rendering:geometricPrecision; image-rendering:optimizeQuality; fill-rule:evenodd; clip-rule:evenodd"
viewBox="0 0 11117 4659"
 xmlns:xlink="http://www.w3.org/1999/xlink">
 <defs>
  <style type="text/css">
   <![CDATA[
    .fil0 {fill:none}
    .fil2 {fill:#4B4B4D}
    .fil1 {fill:#DA5134}
   ]]>
  </style>
 </defs>
 <g id="Layer_x0020_1">
  <metadata id="CorelCorpID_0Corel-Layer"/>
  <g id="_850487767392">
   <rect class="fil0" width="11117" height="4659"/>
   <g>
    <path class="fil1" d="M2006 1512l-223 123c-42,-44 -83,-74 -124,-91 -41,-17 -89,-26 -144,-26 -100,0 -181,30 -243,90 -62,60 -93,136 -93,230 0,90 30,165 90,222 59,57 137,86 234,86 120,0 213,-41 280,-122l211 144c-114,149 -276,224 -484,224 -188,0 -335,-56 -441,-167 -107,-112 -160,-242 -160,-391 0,-103 26,-198 78,-285 51,-87 123,-156 216,-205 93,-50 196,-75 311,-75 106,0 201,21 285,63 85,42 154,103 207,180zm4392 -202l268 0 0 110c60,-52 115,-87 165,-107 49,-20 99,-30 151,-30 106,0 195,37 269,111 62,62 93,155 93,278l0 706 -264 0 0 -468c0,-127 -6,-212 -17,-254 -12,-41 -32,-73 -60,-95 -29,-22 -64,-33 -106,-33 -54,0 -100,18 -139,54 -39,37 -66,87 -81,151 -8,33 -11,105 -11,216l0 429 -268 0 0 -1068zm-3030 0l229 0 0 135c25,-53 58,-94 100,-121 41,-27 86,-41 135,-41 35,0 71,9 109,27l-84 231c-31,-16 -57,-24 -77,-24 -41,0 -76,26 -105,77 -28,51 -42,151 -42,300l1 52 0 432 -266 0 0 -1068zm4752 736c-17,17 -59,85 -204,85 -155,0 -155,-103 -155,-125l0 -473 281 0 0 -230 -281 0 0 -394 -267 0 0 394 0 230c0,0 0,477 0,477 0,102 35,193 102,259 70,70 182,101 273,101 150,0 221,-38 271,-70 46,-29 96,-78 113,-109l-133 -145zm2068 -600l-166 165c-55,-78 -97,-104 -139,-109 -30,-4 -61,-3 -78,9 -17,13 -34,40 -30,65 2,14 7,44 86,86l75 37c103,51 175,120 214,173 38,53 58,116 58,187 0,95 -35,174 -105,237 -69,64 -163,96 -280,96 -156,0 -280,-61 -373,-183l165 -180c32,37 68,67 110,89 43,23 80,34 113,34 35,0 64,-8 85,-25 22,-17 39,-55 39,-77 0,-55 -13,-85 -111,-141l-104 -49c-137,-53 -229,-154 -229,-285 0,-84 32,-156 97,-216 65,-60 166,-90 267,-90 69,0 119,14 180,57 46,31 103,93 126,120zm-4492 70c-83,0 -152,30 -207,88 -54,59 -82,134 -82,225 0,93 28,168 84,228 56,59 124,89 206,89 84,0 154,-29 209,-88 55,-58 83,-135 83,-230 0,-93 -28,-168 -83,-225 -55,-58 -125,-87 -210,-87zm281 -219l268 0 0 1067 -268 0 0 -113c-52,50 -104,86 -157,108 -53,22 -110,33 -171,33 -138,0 -257,-54 -358,-161 -100,-107 -151,-240 -151,-399 0,-165 49,-300 146,-405 98,-105 216,-158 355,-158 64,0 124,12 180,36 57,24 109,61 156,109l0 -117zm-1887 0l273 0 269 629 269 -629 272 0 -454 1067 -174 0 -455 -1067zm5031 400c-18,-60 -53,-108 -105,-145 -52,-38 -112,-56 -181,-56 -75,0 -140,21 -196,62 -36,27 -69,73 -99,139l581 0zm268 211l-861 0c13,76 46,136 100,181 54,45 123,67 207,67 100,0 186,-35 258,-105l225 106c-56,80 -123,139 -202,177 -78,38 -171,58 -280,58 -167,0 -303,-53 -409,-159 -105,-106 -158,-238 -158,-397 0,-163 53,-298 158,-406 105,-107 237,-161 395,-161 168,0 304,54 410,161 105,108 158,250 158,427l-1 51zm-6464 -211c-17,-60 -52,-108 -104,-145 -52,-38 -113,-56 -182,-56 -74,0 -140,21 -196,62 -36,27 -68,73 -99,139l581 0zm268 211l-860 0c12,76 45,136 99,181 54,45 123,67 207,67 100,0 186,-35 258,-105l225 106c-56,80 -123,139 -202,177 -78,38 -171,58 -279,58 -168,0 -304,-53 -409,-159 -106,-106 -158,-238 -158,-397 0,-163 52,-298 157,-406 105,-107 237,-161 395,-161 168,0 305,54 410,161 105,108 158,250 158,427l-1 51z"/>
    <path class="fil2" d="M5409 3461l-88 0 0 -437 -54 0 0 -81 54 0 0 -186 88 0 0 186 93 0 0 81 -93 0 0 437zm-256 -675l-341 692 -47 -22 340 -692 48 22zm-220 0l-341 692 -48 -22 341 -692 48 22zm4957 224c-25,0 -48,5 -69,15 -21,11 -38,25 -53,42 -14,17 -26,37 -34,59 -8,23 -12,46 -12,70 0,26 4,51 11,74 7,24 18,45 32,63 15,18 32,33 53,44 21,11 46,17 74,17 28,0 53,-6 75,-16 21,-11 39,-25 54,-43 14,-18 25,-39 33,-63 7,-23 11,-48 11,-75 0,-25 -4,-50 -13,-72 -8,-23 -19,-43 -34,-60 -14,-17 -32,-30 -54,-40 -22,-10 -46,-15 -74,-15zm258 451l-88 0 0 -72 -2 0c-45,57 -105,86 -178,86 -39,0 -73,-7 -104,-22 -30,-16 -56,-36 -78,-61 -21,-25 -38,-53 -49,-86 -12,-33 -17,-67 -17,-103 0,-37 5,-72 17,-105 11,-34 27,-63 49,-88 21,-25 47,-45 78,-59 31,-15 66,-23 105,-23 35,0 68,8 99,24 31,15 57,37 78,65l2 0 0 -74 88 0 0 518zm-656 0l-89 0 0 -518 89 0 0 518zm-44 -776c16,0 31,6 44,19 12,12 18,27 18,44 0,17 -6,32 -18,44 -13,12 -28,19 -44,19 -17,0 -32,-7 -45,-19 -12,-12 -18,-27 -18,-44 0,-17 6,-32 18,-44 13,-13 28,-19 45,-19zm-491 325c-26,0 -49,5 -69,15 -21,11 -38,25 -53,42 -15,17 -26,37 -34,59 -8,23 -13,46 -13,70 0,26 4,51 12,74 7,24 18,45 32,63 14,18 32,33 53,44 21,11 45,17 73,17 29,0 54,-6 75,-16 22,-11 39,-25 54,-43 15,-18 26,-39 33,-63 8,-23 11,-48 11,-75 0,-25 -4,-50 -12,-72 -8,-23 -19,-43 -34,-60 -15,-17 -33,-30 -55,-40 -21,-10 -46,-15 -73,-15zm258 425c0,21 0,41 -1,60 -1,20 -3,39 -6,57 -3,19 -9,37 -16,54 -7,18 -17,35 -30,52 -24,31 -54,54 -89,69 -35,15 -72,23 -112,23 -35,0 -69,-6 -100,-17 -30,-11 -57,-27 -80,-47 -22,-21 -40,-46 -53,-75 -13,-30 -20,-63 -21,-100l88 0c1,49 17,87 48,115 30,28 70,42 117,42 34,0 62,-6 84,-18 21,-11 39,-27 51,-47 12,-20 21,-43 25,-69 5,-26 7,-54 7,-83l0 -62 -2 0c-22,27 -48,48 -80,64 -31,15 -65,22 -100,22 -37,0 -71,-7 -102,-22 -30,-15 -56,-34 -78,-59 -22,-25 -38,-54 -50,-87 -11,-33 -17,-67 -17,-103 0,-36 6,-71 18,-104 12,-34 28,-63 50,-88 22,-26 48,-46 79,-61 31,-15 65,-23 103,-23 36,0 69,8 99,24 31,15 56,37 78,65l2 0 0 -74 88 0 0 492zm-861 -425c-27,0 -52,5 -74,15 -23,11 -43,25 -59,42 -16,17 -29,37 -37,60 -9,24 -14,48 -14,75 0,26 5,51 14,74 8,23 21,44 37,61 16,18 36,32 59,42 22,10 47,15 74,15 28,0 53,-5 75,-15 23,-10 43,-24 59,-42 16,-17 28,-38 37,-61 9,-23 13,-48 13,-74 0,-27 -4,-51 -13,-75 -9,-23 -21,-43 -37,-60 -16,-17 -36,-31 -59,-42 -22,-10 -47,-15 -75,-15zm0 465c-37,0 -72,-7 -105,-21 -33,-14 -62,-33 -87,-58 -25,-24 -44,-53 -58,-86 -15,-33 -22,-69 -22,-107 0,-38 7,-74 21,-107 14,-33 33,-62 58,-87 25,-25 53,-45 86,-59 33,-14 69,-22 107,-22 39,0 74,8 107,22 33,14 62,34 87,59 24,25 44,54 58,87 14,33 20,69 20,107 0,38 -7,74 -21,107 -14,33 -34,62 -58,86 -25,25 -54,44 -87,58 -33,14 -68,21 -106,21zm-390 -14l-88 0 0 -909 88 0 0 909zm-479 -451c-27,0 -52,5 -75,15 -23,11 -42,25 -58,42 -17,17 -29,37 -38,60 -9,24 -13,48 -13,75 0,26 4,51 13,74 9,23 21,44 38,61 16,18 35,32 58,42 23,10 48,15 75,15 27,0 52,-5 75,-15 23,-10 42,-24 58,-42 16,-17 29,-38 38,-61 9,-23 13,-48 13,-74 0,-27 -4,-51 -13,-75 -9,-23 -22,-43 -38,-60 -16,-17 -35,-31 -58,-42 -23,-10 -48,-15 -75,-15zm0 465c-38,0 -73,-7 -106,-21 -33,-14 -62,-33 -86,-58 -25,-24 -44,-53 -59,-86 -14,-33 -21,-69 -21,-107 0,-38 7,-74 21,-107 14,-33 33,-62 57,-87 25,-25 54,-45 87,-59 33,-14 69,-22 107,-22 38,0 74,8 107,22 33,14 62,34 86,59 25,25 44,54 58,87 14,33 21,69 21,107 0,38 -7,74 -21,107 -15,33 -34,62 -59,86 -24,25 -53,44 -86,58 -33,14 -69,21 -106,21zm-719 -469l2 0c18,-25 39,-44 63,-58 24,-13 52,-20 85,-20 35,0 65,7 88,19 23,12 41,28 54,49 13,20 22,44 27,71 4,28 7,56 7,86l0 308 -88 0 0 -292c0,-21 -1,-41 -3,-60 -2,-20 -6,-37 -13,-51 -7,-14 -18,-26 -33,-35 -14,-9 -35,-13 -60,-13 -31,0 -54,6 -71,19 -18,13 -31,30 -39,49 -8,20 -14,42 -16,66 -2,25 -3,48 -3,71l0 246 -88 0 0 -518 88 0 0 63zm-228 91l-3 0c-20,-26 -43,-47 -69,-63 -26,-16 -56,-24 -92,-24 -26,0 -50,5 -73,15 -22,11 -42,25 -58,42 -16,18 -29,38 -38,62 -9,23 -14,47 -14,73 0,26 5,50 13,73 9,23 21,44 36,61 15,18 34,32 56,42 22,10 47,16 74,16 38,0 70,-8 96,-24 27,-16 51,-38 73,-66l2 0 0 118c-26,17 -52,30 -78,39 -27,9 -55,14 -86,14 -39,0 -76,-7 -109,-21 -34,-14 -63,-33 -88,-57 -25,-24 -44,-53 -58,-87 -14,-33 -21,-69 -21,-108 0,-38 7,-74 22,-108 15,-33 35,-62 60,-87 25,-24 54,-44 87,-58 34,-14 70,-21 108,-21 28,0 55,5 83,14 28,9 53,21 77,38l0 117zm-599 49c-3,-19 -9,-36 -18,-53 -9,-16 -20,-31 -34,-43 -13,-13 -28,-22 -45,-30 -18,-6 -36,-10 -55,-10 -19,0 -37,4 -55,10 -18,8 -34,17 -48,30 -14,12 -26,27 -36,43 -9,17 -16,34 -18,53l309 0zm-314 75c0,24 4,46 13,67 8,21 20,39 34,55 15,15 33,28 54,37 21,9 44,14 69,14 37,0 69,-11 94,-31 25,-20 47,-45 63,-76l75 43c-25,46 -58,82 -98,107 -41,25 -88,38 -141,38 -39,0 -74,-7 -105,-21 -31,-14 -58,-33 -80,-57 -22,-23 -39,-52 -51,-84 -11,-32 -17,-67 -17,-105 0,-38 5,-74 16,-108 11,-34 28,-64 49,-89 21,-26 47,-46 78,-60 32,-15 68,-23 108,-23 42,0 79,8 110,24 32,16 58,37 79,65 21,27 36,58 46,93 9,36 13,72 11,111l-407 0z"/>
   </g>
  </g>
 </g>
</svg>
